<svg version="1.1" id="Layer_1" xmlns="http://www.w3.org/2000/svg" xmlns:xlink="http://www.w3.org/1999/xlink" x="0px" y="0px"
	 width="100%" viewBox="0 0 1024 1024" enable-background="new 0 0 1024 1024" xml:space="preserve">
<path fill="#000000" opacity="1.000000" stroke="none" 
	d="
M595.058960,802.212830 
	C556.583313,813.677490 517.782776,815.938293 478.455872,811.400818 
	C421.104248,804.783752 369.756226,783.529602 324.755066,747.428101 
	C283.776062,714.553223 253.395660,673.604126 233.687729,624.846863 
	C222.837662,598.003967 216.250992,570.174011 213.653595,541.283142 
	C209.027695,489.829224 216.182770,440.195679 236.888275,392.903900 
	C264.932831,328.849518 310.213989,280.393463 371.849060,247.308273 
	C398.452332,233.027863 426.614807,223.036606 456.302002,217.541214 
	C486.901520,211.876953 517.571594,210.544037 548.643860,214.340851 
	C588.583313,219.221176 625.940369,231.456879 660.860718,251.044220 
	C704.846619,275.716522 740.354675,309.524414 767.393616,352.181305 
	C787.046265,383.185425 800.307190,416.737213 807.813721,452.609558 
	C814.354370,483.865814 815.182007,515.519958 811.798889,547.056152 
	C807.382080,588.228210 794.641235,627.009094 773.757751,662.933960 
	C745.719055,711.167908 707.123413,748.658081 658.566406,776.013428 
	C638.576660,787.274902 617.308777,795.403076 595.058960,802.212830 
M425.401031,500.765076 
	C421.163605,516.435303 415.965302,531.859070 412.643127,547.755798 
	C415.266846,549.156189 417.467621,548.811890 419.588287,548.823486 
	C440.250977,548.936951 460.913971,548.994324 481.576599,549.117004 
	C487.804199,549.153992 488.402039,550.003357 486.479736,555.707520 
	C479.034607,577.799866 471.695343,599.929077 464.070862,621.959412 
	C459.149475,636.179321 454.822418,650.407898 455.609985,665.752319 
	C455.816498,669.776245 453.535431,673.136047 449.468323,674.618958 
	C447.052521,675.499817 445.673065,677.081848 444.844482,679.449890 
	C441.326416,689.504639 437.647430,699.503845 434.218231,709.588318 
	C433.194855,712.597900 431.840271,715.647339 432.099884,719.671082 
	C435.051300,716.270874 437.707916,713.569519 439.951691,710.560364 
	C447.848022,699.970642 457.712708,690.544373 460.123169,676.658691 
	C460.739258,673.109680 463.058838,670.710388 466.353485,669.374023 
	C471.653656,667.224304 475.411987,663.358032 478.776520,658.888916 
	C485.887787,649.443176 493.158020,640.117432 500.325897,630.714111 
	C538.799988,580.241272 576.532166,529.213440 614.352478,478.251617 
	C615.403870,476.834900 617.164917,475.445801 616.048767,473.439758 
	C615.100281,471.735107 613.116760,472.146637 611.491394,472.118439 
	C593.014771,471.797913 574.538086,471.481262 556.060547,471.221069 
	C549.416321,471.127472 549.069275,470.731537 551.855286,464.931885 
	C567.069153,433.260834 582.268738,401.582825 597.558105,369.948181 
	C604.439209,355.710846 611.519348,341.569702 618.504639,327.382721 
	C620.861084,322.597046 619.786560,320.760254 614.355835,320.292847 
	C613.527039,320.221527 612.691040,320.212097 611.858337,320.212677 
	C568.365845,320.241638 524.873291,320.305634 481.380951,320.251312 
	C477.745300,320.246765 476.056305,321.571747 475.087311,325.080902 
	C466.227264,357.167908 457.291107,389.234406 448.230164,421.265289 
	C440.800110,447.530884 433.169891,473.739807 425.401031,500.765076 
M638.385742,634.755554 
	C625.084900,661.613647 603.178955,675.418640 573.491394,676.143860 
	C548.188782,676.761963 522.859131,676.345276 497.542236,676.220459 
	C494.021606,676.203125 491.672455,677.187378 489.616882,680.123352 
	C484.273529,687.754944 478.625519,695.173218 473.110077,702.684631 
	C472.532654,703.471008 471.785522,704.246460 472.507721,705.613403 
	C473.482330,705.737000 474.608765,706.005920 475.734802,706.004333 
	C509.879578,705.954956 544.055969,706.771912 578.160339,705.561401 
	C613.789856,704.296692 641.630371,687.559631 659.871399,656.868347 
	C677.951660,626.447388 678.577515,593.905029 667.110168,561.120117 
	C659.255005,538.662476 644.332458,521.512085 623.961426,509.109100 
	C620.786377,507.175964 618.813416,507.230621 616.589478,510.511078 
	C612.763611,516.154541 608.579834,521.564636 604.374207,526.938049 
	C601.699829,530.354980 602.539246,532.330688 606.206482,534.247009 
	C642.706482,553.319946 653.956055,599.385193 638.385742,634.755554 
M362.814789,377.284119 
	C338.693817,429.643768 361.307037,489.902130 400.735291,511.081116 
	C403.288666,501.321716 405.817841,491.711578 408.306793,482.091003 
	C408.772705,480.290100 407.372528,479.378387 406.260803,478.403687 
	C388.503326,462.834686 381.396332,442.941223 381.734985,419.697723 
	C382.166382,390.090118 403.002808,361.734467 431.892395,354.982971 
	C442.756012,352.444122 448.101501,347.780945 449.607880,337.228821 
	C450.344849,332.066345 452.086060,327.047241 453.399017,321.859283 
	C421.564819,321.413757 381.872162,338.606567 362.814789,377.284119 
M597.667786,591.152283 
	C603.480591,609.774780 595.006836,631.330566 567.667786,630.297302 
	C555.530212,629.838501 543.359131,630.333252 531.207031,630.149048 
	C527.825928,630.097778 525.714966,631.184631 523.790283,633.967041 
	C519.533203,640.121094 514.871948,645.994202 510.445312,652.033081 
	C508.828552,654.238770 506.704926,656.197144 506.176483,658.900146 
	C507.218658,660.016052 508.272095,659.884705 509.232208,659.884705 
	C531.543579,659.884338 553.877563,660.470764 576.159302,659.647766 
	C594.404907,658.973877 609.492737,650.991760 619.753906,635.348938 
	C629.373535,620.684021 630.308533,604.417969 627.429199,587.767822 
	C624.172363,568.935425 613.983643,555.101685 596.363831,547.131226 
	C594.211853,546.157715 591.750244,544.243652 589.616028,546.982727 
	C584.033142,554.147949 578.298523,561.217102 573.244934,569.447021 
	C584.173279,573.555908 593.889771,578.528259 597.667786,591.152283 
M411.865814,385.362793 
	C389.769714,408.196289 397.251373,451.637482 413.918701,462.456665 
	C423.144684,431.822510 431.803894,401.245758 439.915741,369.365997 
	C428.408264,372.250427 419.585602,377.123199 411.865814,385.362793 
M407.499695,659.811218 
	C412.989929,659.803223 418.482941,659.687561 423.969238,659.830261 
	C426.935608,659.907410 428.495758,658.775269 429.379700,655.911621 
	C431.093842,650.358276 433.202911,644.928040 434.984802,639.394104 
	C435.871216,636.641052 437.811615,634.071411 436.910675,630.757202 
	C436.230011,630.587219 435.601837,630.294800 434.972748,630.292847 
	C415.341644,630.230957 395.710236,630.237427 376.079559,630.117676 
	C373.034363,630.099121 372.080383,631.773499 371.480743,634.267822 
	C369.929932,640.718750 368.317200,647.155090 366.687958,653.586853 
	C365.399200,658.674316 366.211365,659.794373 371.562042,659.809204 
	C383.207886,659.841431 394.853882,659.815002 407.499695,659.811218 
M417.830841,689.404724 
	C418.890076,685.310852 421.310791,681.527954 420.903931,676.891357 
	C419.898590,676.687134 419.103149,676.385742 418.307190,676.384338 
	C400.477844,676.351868 382.647949,676.419861 364.819458,676.290344 
	C361.214630,676.264099 360.317108,678.423401 359.648956,681.156860 
	C358.149109,687.292480 356.645599,693.427185 355.159912,699.566284 
	C353.754547,705.373535 354.147003,705.920959 360.114044,705.934814 
	C373.944336,705.966858 387.775513,706.028564 401.604980,705.916687 
	C413.195038,705.822937 411.685272,707.680176 415.429321,696.264343 
	C416.102539,694.211609 416.826843,692.175598 417.830841,689.404724 
M661.117737,377.787201 
	C661.695374,374.756775 663.325684,371.876587 662.396362,367.414368 
	C650.164001,367.414368 637.879761,367.422485 625.595459,367.406921 
	C623.371399,367.404114 622.427124,368.847321 621.609558,370.601746 
	C619.362183,375.424164 616.956421,380.175079 614.805115,385.039124 
	C613.086670,388.924377 610.322937,392.365845 609.441162,396.889404 
	C610.272461,397.172180 610.879517,397.582306 611.458435,397.545776 
	C625.440491,396.662689 639.425110,396.891418 653.410828,397.386383 
	C655.733582,397.468628 656.573303,396.060242 657.053223,394.076599 
	C658.304810,388.903076 659.633362,383.748169 661.117737,377.787201 
M639.968628,332.430878 
	C637.488892,338.418793 633.761597,343.901733 631.772461,350.752228 
	C643.280701,350.752228 653.890564,350.711487 664.499695,350.779510 
	C667.324890,350.797607 668.130066,349.077759 668.709290,346.807831 
	C670.513794,339.736877 672.299927,332.658875 674.279358,325.636047 
	C675.274719,322.104706 673.789551,321.106781 670.602051,321.158630 
	C666.283569,321.228912 661.866882,321.776245 657.663818,321.081512 
	C648.519043,319.569977 642.739319,322.750732 639.968628,332.430878 
z"/>
</svg>